<?xml version="1.0" encoding="UTF-8" standalone="no"?>
<svg
   xmlns:dc="http://purl.org/dc/elements/1.1/"
   xmlns:cc="http://creativecommons.org/ns#"
   xmlns:rdf="http://www.w3.org/1999/02/22-rdf-syntax-ns#"
   xmlns:svg="http://www.w3.org/2000/svg"
   xmlns="http://www.w3.org/2000/svg"
   viewBox="0 0 875 139.3425"
   height="139.3425"
   width="875"
   xml:space="preserve"
   version="1.1"
   id="svg2"><metadata
     id="metadata8"><rdf:RDF><cc:Work
         rdf:about=""><dc:format>image/svg+xml</dc:format><dc:type
           rdf:resource="http://purl.org/dc/dcmitype/StillImage" /><dc:title></dc:title></cc:Work></rdf:RDF></metadata><defs
     id="defs6"><clipPath
       id="clipPath20"
       clipPathUnits="userSpaceOnUse"><path
         id="path22"
         d="m 0,111.474 700,0 L 700,0 0,0 0,111.474 Z" /></clipPath></defs><g
     transform="matrix(1.25,0,0,-1.25,0,139.3425)"
     id="g10"><g
       transform="translate(151.4805,32.0781)"
       id="g12"><path
         id="path14"
         style="fill:#000000;fill-opacity:1;fill-rule:nonzero;stroke:none"
         d="m 0,0 0,44.661 5.194,0 0,-39.956 19.702,0 L 24.896,0 0,0 Z" /></g><g
       id="g16"><g
         clip-path="url(#clipPath20)"
         id="g18"><path
           id="path24"
           style="fill:#000000;fill-opacity:1;fill-rule:nonzero;stroke:none"
           d="m 187.238,32.078 -5.067,0 0,33.481 5.067,0 0,-33.481 z m -5.498,42.553 c 0,1.161 0.286,2.011 0.858,2.551 0.569,0.538 1.283,0.808 2.137,0.808 0.813,0 1.52,-0.274 2.108,-0.823 0.59,-0.549 0.886,-1.396 0.886,-2.536 0,-1.143 -0.296,-1.99 -0.886,-2.551 -0.588,-0.56 -1.295,-0.841 -2.108,-0.841 -0.854,0 -1.568,0.281 -2.137,0.841 -0.572,0.561 -0.858,1.408 -0.858,2.551" /><g
           transform="translate(210.9993,61.8642)"
           id="g26"><path
             id="path28"
             style="fill:#000000;fill-opacity:1;fill-rule:nonzero;stroke:none"
             d="m 0,0 c -3.463,0 -5.955,-0.995 -7.484,-2.98 -1.528,-1.986 -2.291,-5.33 -2.291,-10.035 0,-4.704 0.783,-8.071 2.352,-10.095 1.566,-2.028 4.082,-3.041 7.547,-3.041 3.114,0 5.435,1.136 6.964,3.407 1.525,2.27 2.289,5.533 2.289,9.79 0,4.358 -0.764,7.605 -2.289,9.743 C 5.559,-1.071 3.195,0 0,0 m 0.732,4.244 c 4.398,0 7.816,-1.503 10.249,-4.505 2.433,-3.005 3.651,-7.256 3.651,-12.754 0,-5.498 -1.23,-9.769 -3.681,-12.815 -2.454,-3.043 -5.86,-4.567 -10.219,-4.567 -2.178,0 -4.169,0.404 -5.971,1.208 -1.803,0.804 -3.313,2.042 -4.536,3.711 l -0.367,0 -1.07,-4.308 -3.635,0 0,47.531 5.072,0 0,-11.546 c 0,-2.586 -0.081,-4.907 -0.245,-6.966 l 0.245,0 c 2.364,3.341 5.866,5.011 10.507,5.011" /></g><g
           transform="translate(248.2244,66.1708)"
           id="g30"><path
             id="path32"
             style="fill:#000000;fill-opacity:1;fill-rule:nonzero;stroke:none"
             d="M 0,0 C 1.484,0 2.818,-0.123 4.002,-0.367 L 3.299,-5.073 c -1.385,0.307 -2.608,0.458 -3.666,0.458 -2.709,0 -5.026,-1.099 -6.95,-3.298 -1.924,-2.2 -2.889,-4.939 -2.889,-8.217 l 0,-17.963 -5.069,0 0,33.481 4.185,0 0.58,-6.202 0.245,0 c 1.241,2.181 2.739,3.859 4.489,5.041 C -4.023,-0.591 -2.098,0 0,0" /></g><g
           transform="translate(269.334,61.9234)"
           id="g34"><path
             id="path36"
             style="fill:#000000;fill-opacity:1;fill-rule:nonzero;stroke:none"
             d="m 0,0 c -2.687,0 -4.83,-0.875 -6.429,-2.627 -1.598,-1.753 -2.543,-4.174 -2.825,-7.27 l 17.502,0 c 0,3.197 -0.712,5.646 -2.139,7.348 C 4.684,-0.85 2.648,0 0,0 m 1.375,-30.456 c -4.949,0 -8.854,1.507 -11.713,4.523 -2.863,3.012 -4.292,7.197 -4.292,12.554 0,5.395 1.328,9.682 3.986,12.86 2.656,3.177 6.226,4.766 10.705,4.766 4.195,0 7.516,-1.382 9.959,-4.14 2.445,-2.759 3.666,-6.399 3.666,-10.919 l 0,-3.209 -23.063,0 c 0.103,-3.932 1.093,-6.913 2.978,-8.95 1.882,-2.038 4.536,-3.055 7.958,-3.055 3.607,0 7.169,0.753 10.691,2.26 l 0,-4.519 c -1.792,-0.776 -3.487,-1.33 -5.085,-1.666 -1.598,-0.337 -3.528,-0.505 -5.79,-0.505" /></g><g
           transform="translate(309.8032,69.4986)"
           id="g38"><path
             id="path40"
             style="fill:#000000;fill-opacity:1;fill-rule:nonzero;stroke:none"
             d="m 0,0 c -3.562,0 -6.324,-1.338 -8.28,-4.016 -1.953,-2.678 -2.93,-6.411 -2.93,-11.196 0,-9.959 3.737,-14.937 11.21,-14.937 3.135,0 6.936,0.783 11.393,2.352 l 0,-7.943 c -3.664,-1.527 -7.758,-2.291 -12.281,-2.291 -6.494,0 -11.462,1.971 -14.904,5.913 -3.443,3.94 -5.162,9.595 -5.162,16.966 0,4.645 0.843,8.711 2.534,12.204 1.689,3.492 4.118,6.169 7.285,8.033 3.167,1.866 6.879,2.798 11.135,2.798 4.339,0 8.694,-1.051 13.075,-3.148 L 10.02,-2.964 C 8.351,-2.167 6.669,-1.476 4.98,-0.886 3.289,-0.295 1.63,0 0,0" /></g><g
           transform="translate(335.5283,49.2167)"
           id="g42"><path
             id="path44"
             style="fill:#000000;fill-opacity:1;fill-rule:nonzero;stroke:none"
             d="m 0,0 c 0,-3.381 0.554,-5.937 1.665,-7.668 1.111,-1.73 2.917,-2.597 5.423,-2.597 2.484,0 4.272,0.862 5.361,2.581 1.089,1.721 1.632,4.282 1.632,7.684 0,3.38 -0.549,5.914 -1.648,7.606 C 11.334,9.296 9.531,10.14 7.027,10.14 4.542,10.14 2.749,9.301 1.652,7.621 0.551,5.941 0,3.401 0,0 m 23.612,0 c 0,-5.561 -1.466,-9.908 -4.399,-13.045 -2.93,-3.137 -7.014,-4.704 -12.247,-4.704 -3.28,0 -6.171,0.719 -8.675,2.155 -2.506,1.435 -4.43,3.495 -5.775,6.183 -1.344,2.689 -2.015,5.826 -2.015,9.411 0,5.578 1.456,9.916 4.367,13.013 2.914,3.095 7.007,4.643 12.281,4.643 3.278,0 6.168,-0.714 8.674,-2.139 2.504,-1.425 4.428,-3.471 5.774,-6.14 C 22.941,6.71 23.612,3.582 23.612,0" /></g><path
           id="path46"
           style="fill:#000000;fill-opacity:1;fill-rule:nonzero;stroke:none"
           d="m 374.809,32.078 -9.316,0 0,47.531 9.316,0 0,-47.531 z" /><g
           transform="translate(401.979,47.9025)"
           id="g48"><path
             id="path50"
             style="fill:#000000;fill-opacity:1;fill-rule:nonzero;stroke:none"
             d="m 0,0 -3.605,-0.123 c -2.707,-0.081 -4.724,-0.57 -6.048,-1.466 -1.324,-0.896 -1.985,-2.26 -1.985,-4.093 0,-2.628 1.507,-3.941 4.521,-3.941 2.158,0 3.883,0.622 5.177,1.863 C -0.647,-6.517 0,-4.867 0,-2.811 L 0,0 Z m 2.749,-15.824 -1.8,4.645 -0.247,0 c -1.568,-1.977 -3.18,-3.345 -4.84,-4.109 -1.659,-0.763 -3.824,-1.147 -6.492,-1.147 -3.279,0 -5.86,0.936 -7.743,2.81 -1.884,1.873 -2.825,4.541 -2.825,8.004 0,3.624 1.266,6.298 3.802,8.019 2.534,1.719 6.36,2.672 11.472,2.856 L 0,5.437 0,6.935 c 0,3.461 -1.77,5.192 -5.314,5.192 -2.729,0 -5.935,-0.824 -9.623,-2.474 l -3.085,6.292 c 3.929,2.058 8.29,3.086 13.073,3.086 4.582,0 8.096,-0.999 10.539,-2.993 2.443,-1.997 3.668,-5.03 3.668,-9.103 l 0,-22.759 -6.509,0 z" /></g><g
           transform="translate(435.1807,59.4193)"
           id="g52"><path
             id="path54"
             style="fill:#000000;fill-opacity:1;fill-rule:nonzero;stroke:none"
             d="m 0,0 c -2.301,0 -3.98,-0.709 -5.04,-2.123 -1.057,-1.416 -1.608,-3.753 -1.649,-7.011 l 0,-1.007 c 0,-3.666 0.544,-6.294 1.634,-7.881 1.089,-1.592 2.815,-2.385 5.179,-2.385 1.914,0 3.436,0.881 4.568,2.644 1.129,1.76 1.693,4.321 1.693,7.682 0,3.36 -0.57,5.88 -1.71,7.56 C 3.536,-0.841 1.977,0 0,0 m 2.995,7.453 c 4.032,0 7.189,-1.573 9.468,-4.72 2.279,-3.147 3.421,-7.458 3.421,-12.936 0,-5.642 -1.176,-10.01 -3.528,-13.104 -2.35,-3.097 -5.554,-4.645 -9.605,-4.645 -4.014,0 -7.159,1.455 -9.44,4.369 l -0.642,0 -1.556,-3.758 -7.12,0 0,47.531 9.318,0 0,-11.056 c 0,-1.407 -0.123,-3.656 -0.365,-6.752 l 0.365,0 c 2.18,3.381 5.406,5.071 9.684,5.071" /></g><g
           transform="translate(465.2804,49.2167)"
           id="g56"><path
             id="path58"
             style="fill:#000000;fill-opacity:1;fill-rule:nonzero;stroke:none"
             d="m 0,0 c 0,-3.381 0.555,-5.937 1.663,-7.668 1.111,-1.73 2.917,-2.597 5.421,-2.597 2.488,0 4.274,0.862 5.363,2.581 1.089,1.721 1.634,4.282 1.634,7.684 0,3.38 -0.55,5.914 -1.648,7.606 C 11.33,9.296 9.529,10.14 7.025,10.14 4.54,10.14 2.747,9.301 1.648,7.621 0.549,5.941 0,3.401 0,0 m 23.614,0 c 0,-5.561 -1.47,-9.908 -4.401,-13.045 -2.932,-3.137 -7.014,-4.704 -12.249,-4.704 -3.28,0 -6.171,0.719 -8.673,2.155 -2.508,1.435 -4.434,3.495 -5.775,6.183 -1.346,2.689 -2.017,5.826 -2.017,9.411 0,5.578 1.456,9.916 4.369,13.013 2.91,3.095 7.003,4.643 12.279,4.643 3.28,0 6.17,-0.714 8.676,-2.139 2.505,-1.425 4.428,-3.471 5.772,-6.14 C 22.941,6.71 23.614,3.582 23.614,0" /></g><g
           transform="translate(514.2365,66.8722)"
           id="g60"><path
             id="path62"
             style="fill:#000000;fill-opacity:1;fill-rule:nonzero;stroke:none"
             d="M 0,0 C 1.263,0 2.313,-0.092 3.147,-0.275 L 2.443,-9.01 c -0.752,0.202 -1.667,0.305 -2.749,0.305 -2.97,0 -5.288,-0.765 -6.948,-2.292 -1.659,-1.528 -2.488,-3.664 -2.488,-6.415 l 0,-17.382 -9.319,0 0,34.154 7.058,0 1.375,-5.743 0.458,0 c 1.06,1.913 2.488,3.456 4.292,4.627 C -4.075,-0.587 -2.117,0 0,0" /></g><g
           transform="translate(540.4094,47.9025)"
           id="g64"><path
             id="path66"
             style="fill:#000000;fill-opacity:1;fill-rule:nonzero;stroke:none"
             d="m 0,0 -3.603,-0.123 c -2.711,-0.081 -4.726,-0.57 -6.05,-1.466 -1.322,-0.896 -1.985,-2.26 -1.985,-4.093 0,-2.628 1.505,-3.941 4.518,-3.941 2.161,0 3.886,0.622 5.18,1.863 C -0.647,-6.517 0,-4.867 0,-2.811 L 0,0 Z m 2.749,-15.824 -1.802,4.645 -0.245,0 c -1.568,-1.977 -3.182,-3.345 -4.84,-4.109 -1.661,-0.763 -3.826,-1.147 -6.492,-1.147 -3.279,0 -5.862,0.936 -7.745,2.81 -1.882,1.873 -2.826,4.541 -2.826,8.004 0,3.624 1.269,6.298 3.805,8.019 2.532,1.719 6.358,2.672 11.47,2.856 L 0,5.437 0,6.935 c 0,3.461 -1.774,5.192 -5.316,5.192 -2.727,0 -5.937,-0.824 -9.621,-2.474 l -3.085,6.292 c 3.929,2.058 8.288,3.086 13.073,3.086 4.582,0 8.094,-0.999 10.537,-2.993 2.445,-1.997 3.667,-5.03 3.667,-9.103 l 0,-22.759 -6.506,0 z" /></g><g
           transform="translate(571.8174,31.4675)"
           id="g68"><path
             id="path70"
             style="fill:#000000;fill-opacity:1;fill-rule:nonzero;stroke:none"
             d="m 0,0 c -10.63,0 -15.946,5.835 -15.946,17.504 0,5.804 1.447,10.239 4.339,13.304 2.889,3.063 7.035,4.597 12.432,4.597 3.948,0 7.494,-0.774 10.63,-2.323 L 8.706,25.874 c -1.466,0.59 -2.83,1.073 -4.093,1.45 -1.264,0.376 -2.527,0.566 -3.788,0.566 -4.848,0 -7.27,-3.441 -7.27,-10.325 0,-6.679 2.422,-10.02 7.27,-10.02 1.792,0 3.451,0.239 4.98,0.718 1.526,0.478 3.053,1.228 4.58,2.245 l 0,-7.972 C 8.878,1.579 7.356,0.918 5.819,0.551 4.282,0.183 2.342,0 0,0" /></g><path
           id="path72"
           style="fill:#000000;fill-opacity:1;fill-rule:nonzero;stroke:none"
           d="m 597.917,32.078 -9.316,0 0,34.154 9.316,0 0,-34.154 z m -9.712,42.981 c 0,3.033 1.689,4.55 5.069,4.55 3.381,0 5.072,-1.517 5.072,-4.55 0,-1.447 -0.423,-2.571 -1.267,-3.377 -0.845,-0.803 -2.114,-1.207 -3.805,-1.207 -3.38,0 -5.069,1.53 -5.069,4.584" /><g
           transform="translate(615.5325,69.987)"
           id="g74"><path
             id="path76"
             style="fill:#000000;fill-opacity:1;fill-rule:nonzero;stroke:none"
             d="m 0,0 0,0.824 c 3.503,4.075 5.894,7.138 7.179,9.196 l 10.446,0 0,-0.641 C 16.565,8.318 14.758,6.747 12.203,4.659 9.647,2.572 7.646,1.017 6.2,0 L 0,0 Z m -1.957,-20.77 c 0,-3.381 0.556,-5.938 1.667,-7.668 1.109,-1.731 2.918,-2.597 5.422,-2.597 2.481,0 4.271,0.861 5.36,2.581 1.087,1.721 1.636,4.282 1.636,7.684 0,3.38 -0.551,5.913 -1.652,7.606 -1.097,1.69 -2.899,2.534 -5.405,2.534 -2.486,0 -4.278,-0.839 -5.377,-2.52 -1.101,-1.679 -1.651,-4.219 -1.651,-7.62 m 23.613,0 c 0,-5.561 -1.464,-9.908 -4.398,-13.045 -2.932,-3.137 -7.015,-4.705 -12.25,-4.705 -3.279,0 -6.17,0.72 -8.674,2.155 -2.504,1.436 -4.43,3.496 -5.774,6.183 -1.344,2.69 -2.017,5.826 -2.017,9.412 0,5.578 1.457,9.916 4.369,13.012 2.911,3.095 7.007,4.643 12.282,4.643 3.277,0 6.168,-0.713 8.674,-2.139 2.502,-1.424 4.428,-3.471 5.772,-6.139 1.347,-2.667 2.016,-5.795 2.016,-9.377" /></g><g
           transform="translate(675,32.0781)"
           id="g78"><path
             id="path80"
             style="fill:#000000;fill-opacity:1;fill-rule:nonzero;stroke:none"
             d="m 0,0 -9.32,0 0,19.949 c 0,2.463 -0.438,4.31 -1.314,5.543 -0.876,1.233 -2.271,1.849 -4.185,1.849 -2.607,0 -4.489,-0.871 -5.651,-2.613 -1.159,-1.741 -1.743,-4.627 -1.743,-8.66 l 0,-16.068 -9.313,0 0,34.154 7.115,0 1.253,-4.368 0.519,0 c 1.04,1.648 2.471,2.895 4.294,3.739 1.821,0.846 3.893,1.269 6.214,1.269 3.972,0 6.985,-1.073 9.043,-3.222 C -1.03,29.422 0,26.322 0,22.269 L 0,0 Z" /></g><g
           transform="translate(62.4539,37.1089)"
           id="g82"><path
             id="path84"
             style="fill:#000000;fill-opacity:1;fill-rule:nonzero;stroke:none"
             d="m 0,0 -37.454,0 0,37.256 5.188,0 0,-32.424 L 0,4.832 0,0 Z" /></g><g
           transform="translate(84.8226,3.9812)"
           id="g86"><path
             id="path88"
             style="fill:#000000;fill-opacity:1;fill-rule:nonzero;stroke:none"
             d="m 0,0 c -1.144,0 -2.07,0.926 -2.07,2.071 l 0,11.592 c 0,1.144 0.926,2.071 2.07,2.071 1.144,0 2.07,-0.927 2.07,-2.071 l 0,-11.592 C 2.07,0.926 1.144,0 0,0" /></g><g
           transform="translate(84.8226,91.7587)"
           id="g90"><path
             id="path92"
             style="fill:#000000;fill-opacity:1;fill-rule:nonzero;stroke:none"
             d="m 0,0 c -1.144,0 -2.07,0.926 -2.07,2.071 l 0,11.592 c 0,1.144 0.926,2.072 2.07,2.072 1.144,0 2.07,-0.928 2.07,-2.072 l 0,-11.592 C 2.07,0.926 1.144,0 0,0" /></g><g
           transform="translate(119.9541,18.5349)"
           id="g94"><path
             id="path96"
             style="fill:#000000;fill-opacity:1;fill-rule:nonzero;stroke:none"
             d="m 0,0 c -0.528,0 -1.06,0.202 -1.462,0.607 l -8.199,8.198 c -0.808,0.808 -0.808,2.118 0,2.927 0.809,0.808 2.121,0.808 2.927,0 L 1.464,3.535 C 2.273,2.725 2.273,1.414 1.464,0.607 1.063,0.202 0.531,0 0,0" /></g><g
           transform="translate(57.8879,80.603)"
           id="g98"><path
             id="path100"
             style="fill:#000000;fill-opacity:1;fill-rule:nonzero;stroke:none"
             d="m 0,0 c -0.529,0 -1.061,0.202 -1.464,0.607 l -8.198,8.198 c -0.81,0.807 -0.81,2.118 0,2.926 0.808,0.808 2.118,0.808 2.925,0 L 1.462,3.534 C 2.271,2.727 2.271,1.414 1.462,0.607 1.06,0.202 0.528,0 0,0" /></g><g
           transform="translate(134.5077,53.6673)"
           id="g102"><path
             id="path104"
             style="fill:#000000;fill-opacity:1;fill-rule:nonzero;stroke:none"
             d="m 0,0 -11.593,0 c -1.143,0 -2.072,0.925 -2.072,2.068 0,1.144 0.929,2.071 2.072,2.071 L 0,4.139 C 1.143,4.139 2.071,3.212 2.071,2.068 2.071,0.925 1.143,0 0,0" /></g><g
           transform="translate(49.69,18.5349)"
           id="g106"><path
             id="path108"
             style="fill:#000000;fill-opacity:1;fill-rule:nonzero;stroke:none"
             d="m 0,0 c -0.53,0 -1.061,0.202 -1.464,0.607 -0.81,0.807 -0.81,2.118 0,2.928 l 8.198,8.197 c 0.809,0.808 2.119,0.808 2.926,0 0.809,-0.809 0.809,-2.119 0,-2.927 L 1.461,0.607 C 1.059,0.202 0.53,0 0,0" /></g><g
           transform="translate(111.7562,80.603)"
           id="g110"><path
             id="path112"
             style="fill:#000000;fill-opacity:1;fill-rule:nonzero;stroke:none"
             d="m 0,0 c -0.528,0 -1.059,0.202 -1.463,0.607 -0.808,0.807 -0.808,2.12 0,2.927 l 8.199,8.197 c 0.807,0.808 2.117,0.808 2.926,0 0.809,-0.808 0.809,-2.119 0,-2.926 L 1.464,0.607 C 1.061,0.202 0.53,0 0,0" /></g><g
           transform="translate(46.2734,45.6047)"
           id="g114"><path
             id="path116"
             style="fill:#000000;fill-opacity:1;fill-rule:nonzero;stroke:none"
             d="m 0,0 4.758,20.264 2.121,0 L 2.118,0 0,0 Z" /></g><g
           transform="translate(40.0173,45.6047)"
           id="g118"><path
             id="path120"
             style="fill:#000000;fill-opacity:1;fill-rule:nonzero;stroke:none"
             d="m 0,0 4.76,20.264 2.122,0 L 2.12,0 0,0 Z" /></g><g
           transform="translate(33.7661,45.6047)"
           id="g122"><path
             id="path124"
             style="fill:#000000;fill-opacity:1;fill-rule:nonzero;stroke:none"
             d="m 0,0 4.758,20.264 2.122,0 L 2.118,0 0,0 Z" /></g><g
           transform="translate(112.5406,46.1434)"
           id="g126"><path
             id="path128"
             style="fill:#000000;fill-opacity:1;fill-rule:nonzero;stroke:none"
             d="m 0,0 c -3.984,-11.474 -14.904,-19.735 -27.716,-19.735 -16.175,0 -29.332,13.158 -29.332,29.325 0,16.174 13.157,29.332 29.332,29.332 12.806,0 23.714,-8.247 27.703,-19.712 l -4.928,-0.99 c -3.486,9.188 -12.38,15.733 -22.775,15.733 -13.434,0 -24.364,-10.926 -24.364,-24.363 0,-13.431 10.93,-24.358 24.364,-24.358 10.403,0 19.306,6.559 22.789,15.76 L 0,0 Z" /></g><path
           id="path130"
           style="fill:#000000;fill-opacity:1;fill-rule:nonzero;stroke:none"
           d="m 85.657,43.65 -1.671,0 0,24.173 1.671,0 0,-24.173 z" /></g></g></g></svg>